<?xml version="1.0" standalone="no"?>
<!DOCTYPE svg PUBLIC "-//W3C//DTD SVG 20010904//EN"
 "http://www.w3.org/TR/2001/REC-SVG-20010904/DTD/svg10.dtd">
<svg version="1.0" xmlns="http://www.w3.org/2000/svg"
 width="266.000000pt" height="266.000000pt" viewBox="0 0 266.000000 266.000000"
 preserveAspectRatio="xMidYMid meet">
<metadata>
Created by potrace 1.11, written by Peter Selinger 2001-2013
</metadata>
<g transform="translate(0.000000,266.000000) scale(0.100000,-0.100000)"
fill="#000000" stroke="none">
<path d="M180 2595 l0 -55 1165 0 1165 0 0 55 0 55 -1165 0 -1165 0 0 -55z"/>
<path d="M200 1350 l0 -1000 155 0 155 0 0 420 0 420 160 0 160 0 0 -420 0
-420 155 0 155 0 0 1000 0 1000 -155 0 -155 0 0 -420 0 -420 -160 0 -160 0 0
420 0 420 -155 0 -155 0 0 -1000z"/>
<path d="M1470 1350 l0 -1000 155 0 155 0 0 385 0 385 32 65 c18 36 35 65 38
65 4 0 60 -197 125 -437 65 -241 120 -444 122 -450 4 -10 45 -13 160 -13 l155
0 -6 28 c-4 15 -84 310 -177 655 l-170 628 175 340 c97 187 176 342 176 345 0
2 -70 3 -157 2 l-156 -3 -156 -301 -156 -301 -3 303 -2 304 -155 0 -155 0 0
-1000z"/>
<path d="M190 75 l0 -55 1165 0 1165 0 0 55 0 55 -1165 0 -1165 0 0 -55z"/>
</g>
</svg>
